REM DIRINDEX 1\2,1\3,1\4,1\6,1\5\7,1\5\8
REM DIRNAME cjc114,folder01,folder02,folder03,folder04,folder05,folder06,folder07
TITLE ""
FILE "DB4500_5th_1A_10.mp3" MP3
  TRACK 01 AUDIO
    TITLE "2:cjc114_0235"
    INDEX 01 00:00:00
  TRACK 02 AUDIO
    TITLE "0:"
    INDEX 01 00:01:05
  TRACK 03 AUDIO
    TITLE "3:cjc114_0236"
    INDEX 01 00:01:32
  TRACK 04 AUDIO
    TITLE "0:"
    INDEX 01 00:03:14
  TRACK 05 AUDIO
    TITLE "4:cjc114_0237"
    INDEX 01 00:03:41
  TRACK 06 AUDIO
    TITLE "0:"
    INDEX 01 00:06:26
  TRACK 07 AUDIO
    TITLE "2:cjc114_0238"
    INDEX 01 00:07:02
  TRACK 08 AUDIO
    TITLE "0:"
    INDEX 01 00:08:13
  TRACK 09 AUDIO
    TITLE "3:cjc114_0239"
    INDEX 01 00:08:40
  TRACK 10 AUDIO
    TITLE "0:"
    INDEX 01 00:09:67
  TRACK 11 AUDIO
    TITLE "4:cjc114_0240"
    INDEX 01 00:10:19
  TRACK 12 AUDIO
    TITLE "0:"
    INDEX 01 00:12:60
  TRACK 13 AUDIO
    TITLE "2:cjc114_0241"
    INDEX 01 00:13:39
  TRACK 14 AUDIO
    TITLE "0:"
    INDEX 01 00:14:53
  TRACK 15 AUDIO
    TITLE "3:cjc114_0242"
    INDEX 01 00:15:05
  TRACK 16 AUDIO
    TITLE "0:"
    INDEX 01 00:16:20
  TRACK 17 AUDIO
    TITLE "4:cjc114_0243"
    INDEX 01 00:16:48
  TRACK 18 AUDIO
    TITLE "0:"
    INDEX 01 00:18:74
  TRACK 19 AUDIO
    TITLE "4:cjc114_0244"
    INDEX 01 00:19:34
  TRACK 20 AUDIO
    TITLE "0:"
    INDEX 01 00:21:45
  TRACK 21 AUDIO
    TITLE "2:cjc114_0245"
    INDEX 01 00:22:23
  TRACK 22 AUDIO
    TITLE "0:"
    INDEX 01 00:23:34
  TRACK 23 AUDIO
    TITLE "3:cjc114_0246"
    INDEX 01 00:23:63
  TRACK 24 AUDIO
    TITLE "0:"
    INDEX 01 00:25:29
  TRACK 25 AUDIO
    TITLE "4:cjc114_0247"
    INDEX 01 00:25:56
  TRACK 26 AUDIO
    TITLE "0:"
    INDEX 01 00:28:64
  TRACK 27 AUDIO
    TITLE "4:cjc114_0248"
    INDEX 01 00:29:42
  TRACK 28 AUDIO
    TITLE "0:"
    INDEX 01 00:32:19
  TRACK 29 AUDIO
    TITLE "2:cjc114_0249"
    INDEX 01 00:32:72
  TRACK 30 AUDIO
    TITLE "0:"
    INDEX 01 00:34:14
  TRACK 31 AUDIO
    TITLE "3:cjc114_0250"
    INDEX 01 00:34:42
  TRACK 32 AUDIO
    TITLE "0:"
    INDEX 01 00:35:49
  TRACK 33 AUDIO
    TITLE "4:cjc114_0251"
    INDEX 01 00:35:74
  TRACK 34 AUDIO
    TITLE "0:"
    INDEX 01 00:38:63
  TRACK 35 AUDIO
    TITLE "2:cjc114_0252"
    INDEX 01 00:39:41
  TRACK 36 AUDIO
    TITLE "0:"
    INDEX 01 00:40:46
  TRACK 37 AUDIO
    TITLE "3:cjc114_0253"
    INDEX 01 00:41:00
  TRACK 38 AUDIO
    TITLE "0:"
    INDEX 01 00:42:14
  TRACK 39 AUDIO
    TITLE "4:cjc114_0254"
    INDEX 01 00:42:43
  TRACK 40 AUDIO
    TITLE "0:"
    INDEX 01 00:45:28
  TRACK 41 AUDIO
    TITLE "2:cjc114_0255"
    INDEX 01 00:46:02
  TRACK 42 AUDIO
    TITLE "0:"
    INDEX 01 00:47:17
  TRACK 43 AUDIO
    TITLE "3:cjc114_0256"
    INDEX 01 00:47:44
  TRACK 44 AUDIO
    TITLE "0:"
    INDEX 01 00:48:59
  TRACK 45 AUDIO
    TITLE "4:cjc114_0257"
    INDEX 01 00:49:14
  TRACK 46 AUDIO
    TITLE "0:"
    INDEX 01 00:52:43
  TRACK 47 AUDIO
    TITLE "2:cjc114_0258"
    INDEX 01 00:53:21
  TRACK 48 AUDIO
    TITLE "0:"
    INDEX 01 00:54:19
  TRACK 49 AUDIO
    TITLE "3:cjc114_0259"
    INDEX 01 00:54:50
  TRACK 50 AUDIO
    TITLE "0:"
    INDEX 01 00:55:63
  TRACK 51 AUDIO
    TITLE "4:cjc114_0260"
    INDEX 01 00:56:18
  TRACK 52 AUDIO
    TITLE "0:"
    INDEX 01 00:59:49
  TRACK 53 AUDIO
    TITLE "2:cjc114_0261"
    INDEX 01 01:00:27
  TRACK 54 AUDIO
    TITLE "0:"
    INDEX 01 01:01:36
  TRACK 55 AUDIO
    TITLE "3:cjc114_0262"
    INDEX 01 01:01:68
  TRACK 56 AUDIO
    TITLE "0:"
    INDEX 01 01:02:69
  TRACK 57 AUDIO
    TITLE "4:cjc114_0263"
    INDEX 01 01:03:24
  TRACK 58 AUDIO
    TITLE "0:"
    INDEX 01 01:06:18
  TRACK 59 AUDIO
    TITLE "2:cjc114_0264"
    INDEX 01 01:06:73
  TRACK 60 AUDIO
    TITLE "0:"
    INDEX 01 01:08:07
  TRACK 61 AUDIO
    TITLE "3:cjc114_0265"
    INDEX 01 01:08:36
  TRACK 62 AUDIO
    TITLE "0:"
    INDEX 01 01:09:44
  TRACK 63 AUDIO
    TITLE "4:cjc114_0266"
    INDEX 01 01:09:73
  TRACK 64 AUDIO
    TITLE "0:"
    INDEX 01 01:14:29
  TRACK 65 AUDIO
    TITLE "2:cjc114_0267"
    INDEX 01 01:15:07
  TRACK 66 AUDIO
    TITLE "0:"
    INDEX 01 01:16:05
  TRACK 67 AUDIO
    TITLE "3:cjc114_0268"
    INDEX 01 01:16:32
  TRACK 68 AUDIO
    TITLE "0:"
    INDEX 01 01:17:45
  TRACK 69 AUDIO
    TITLE "4:cjc114_0269"
    INDEX 01 01:18:02
  TRACK 70 AUDIO
    TITLE "0:"
    INDEX 01 01:20:42
  TRACK 71 AUDIO
    TITLE "2:cjc114_0270"
    INDEX 01 01:21:20
  TRACK 72 AUDIO
    TITLE "0:"
    INDEX 01 01:22:27
  TRACK 73 AUDIO
    TITLE "3:cjc114_0271"
    INDEX 01 01:22:56
  TRACK 74 AUDIO
    TITLE "0:"
    INDEX 01 01:23:56
  TRACK 75 AUDIO
    TITLE "4:cjc114_0272"
    INDEX 01 01:24:12
  TRACK 76 AUDIO
    TITLE "0:"
    INDEX 01 01:27:44
